# xmcd
#
# Track frame offsets:
#	150
#	12457
#	23877
#	38055
#	50122
#	65387
#	81482
#	94725
#	115012
#	132877
#	149787
#	162680
#
# Disc length: 2378 seconds
#
# Revision: 653242351
# Processed by: cddbd v1.5.2PL0 Copyright (c) Steve Scherf et al.
# Submitted via: EZCDAudioConverter 8.5.0.1
#
DISCID=ae09480c
DTITLE=Daryle Singletary - That's Why I Sing This Way
DYEAR=2002
DGENRE=Country
TTITLE0=Love's Gonna Live Here Again
TTITLE1=Walk Through This World With Me
TTITLE2=I'd Love To Lay You Down
TTITLE3=A-11
TTITLE4=Long Black Veil
TTITLE5=Kay
TTITLE6=That's Why I Sing This Way
TTITLE7=I Never Go Around Mirrors
TTITLE8=Dim Lights, Thick Smoke (And Loud, Loud Music)
TTITLE9=Make Up And Faded Blue Jeans
TTITLE10=After The Fire Is Gone
TTITLE11=Old Violin
EXTD=
EXTT0=
EXTT1=
EXTT2=
EXTT3=
EXTT4=
EXTT5=
EXTT6=
EXTT7=
EXTT8=
EXTT9=
EXTT10=
EXTT11=
PLAYORDER=
